<?xml version="1.0" encoding="utf-8"?>
<!-- Generator: Adobe Illustrator 25.0.0, SVG Export Plug-In . SVG Version: 6.00 Build 0)  -->
<svg version="1.1" id="Layer_1" xmlns="http://www.w3.org/2000/svg" xmlns:xlink="http://www.w3.org/1999/xlink" x="0px" y="0px"
	 viewBox="0 0 500 500" style="enable-background:new 0 0 500 500;" xml:space="preserve">
<style type="text/css">
	.st0{fill:#060500;}
	.st1{fill:#CCAA1D;}
	.st2{fill:#6C9B21;}
</style>
<path class="st0" d="M421.4,254.2c-54.9,0-109.2,0-164,0c-0.1,1.8-0.3,3.5-0.3,5.3c0,10.5,0,21,0,31.5c0,3.4-0.4,6.8-4.7,6.8
	c-4.3,0-4.7-3.4-4.6-6.8c0-10.3,0-20.7,0-31c0-1.8,0-3.6,0-5.7c-55,0-109.4,0-164.4,0c0,2.8,0,5.5,0,8.1c0,9.3,0,18.7,0,28
	c0,3.4,0.1,7.3-4.5,7.4c-4.7,0.1-4.7-3.7-4.7-7.2c0-10.8,0-21.7,0-32.5c0-14-1-13.3,13.3-13.3c51.3,0,102.7,0,154,0c1.8,0,3.6,0,6,0
	c0.1-2,0.3-3.8,0.3-5.6c0-11.7,0-23.3,0-35c0-3.2,0.4-6.4,4.5-6.5c4.3-0.1,4.9,3.1,4.9,6.6c0,11.5,0,23,0,34.5c0,1.8,0,3.6,0,6
	c2.4,0,4.4,0,6.3,0c53,0,106,0,159,0c7.6,0,8.2,0.6,8.2,8.3c0,12.7,0,25.3,0,38c0,3.5-0.4,6.7-4.8,6.6c-3.9-0.1-4.5-3.2-4.4-6.5
	C421.4,279.1,421.4,266.9,421.4,254.2z"/>
<path class="st1" d="M285.7,205.8c0-8,0-16,0-24c0-8.9-3.1-16.6-9.1-23.2c-1.8-2-3.3-2.6-6-1.4c-12.2,5.4-24.6,5.3-36.8,0.1
	c-2.7-1.2-4.2-0.5-6,1.5c-5.8,6.5-8.9,14-8.9,22.7c-0.1,16.5,0,33-0.1,49.5c0,1.5,0.4,3.3-0.3,4.4c-1,1.6-2.9,3.7-4.4,3.7
	c-1.5,0-3.2-2.2-4.3-3.8c-0.6-0.9-0.2-2.6-0.2-3.9c0-16.3,0-32.7,0-49c0-13.6,5.2-24.9,15.6-33.7c2.7-2.3,5.1-3,8.6-1.2
	c12.1,6.3,24.3,6.4,36.4,0.1c3.6-1.9,6.2-1.2,9,1.3c10.2,8.8,15.4,19.9,15.5,33.3c0.1,16.8,0,33.7,0,50.5c0,3.4-0.4,6.8-4.7,6.7
	c-4.3-0.1-4.5-3.6-4.5-7C285.8,223.5,285.8,214.6,285.7,205.8C285.8,205.8,285.7,205.8,285.7,205.8z"/>
<path class="st2" d="M285.7,435.9c0-8.2,0-16.3,0-24.5c-0.1-9.1-3.1-17-9.6-23.3c-1-1-3.6-1.6-5-1c-12.5,5.2-25,5.3-37.4,0
	c-2.4-1-3.9-0.6-5.6,1.2c-6.3,6.8-9.3,14.8-9.2,24.1c0,16.2,0,32.3,0,48.5c0,1.5,0.5,3.4-0.3,4.4c-1,1.6-2.9,3.4-4.5,3.6
	c-1.3,0.1-3.1-1.9-4.1-3.4c-0.6-0.9-0.3-2.6-0.3-3.9c0-16.3,0-32.6,0-49c0-13.8,5.2-25.2,15.7-34.2c2.7-2.3,5.2-2.8,8.6-1.1
	c11.9,6.1,24,6.4,35.9,0.2c3.7-1.9,6.4-1.5,9.5,1.2c10,8.7,15.2,19.6,15.4,32.9c0.2,17,0,34,0,51c0,3.4-0.4,6.8-4.8,6.6
	c-4.1-0.2-4.3-3.4-4.3-6.6C285.8,453.6,285.8,444.7,285.7,435.9C285.8,435.9,285.7,435.9,285.7,435.9z"/>
<path class="st2" d="M468.4,435.9c0,9,0,18,0,27c0,3.1-0.4,6-4.2,6.1c-4,0.2-4.8-2.7-4.8-6c0-17,0-34,0-51c0-9.3-3.1-17.3-9.6-23.9
	c-1-1-3.6-1.6-5-1c-12.5,5.2-25,5.4-37.4,0c-2.7-1.2-4.2-0.3-5.9,1.6c-6.1,6.8-9,14.7-9,23.7c0,16.7,0,33.3-0.1,50
	c0,1.9-0.5,4.1-1.5,5.5c-0.7,0.9-3.6,1.5-4.4,0.9c-1.5-1.2-2.9-3.3-3-5.1c-0.3-11.3-0.2-22.7-0.1-34c0.1-8.6-0.1-17.4,0.9-25.9
	c1.2-10.3,6.9-18.6,14.8-25.3c2.7-2.3,5.2-2.9,8.6-1.1c12.1,6.2,24.3,6.4,36.4,0c3.3-1.7,5.9-1.3,8.6,1.1
	c9.8,8.3,15.3,18.8,15.7,31.7C468.6,418.6,468.4,427.2,468.4,435.9z"/>
<path class="st2" d="M121.2,436.3c0,8.8,0,17.7,0,26.5c0,3.3-0.7,6.2-4.8,6.1c-3.8-0.1-4.3-2.9-4.3-6c0-16.8,0-33.6,0-50.5
	c0-9.4-2.9-17.7-9.7-24.4c-1-1-3.6-1.6-5-1.1c-12.7,5.3-25.2,5.2-37.9,0c-1.3-0.5-3.9,0.2-4.9,1.3c-6.4,6.4-9.4,14.4-9.4,23.5
	c0,16.3,0,32.7,0,49c0,1.3,0.5,3-0.1,3.9c-1.2,1.7-3,4.1-4.5,4.1c-1.4,0-3.6-2.5-4.2-4.2c-0.7-2.5-0.2-5.3-0.2-7.9
	c0-15.3-0.1-30.7,0-46c0.1-13.1,5.6-23.7,15.5-32.2c2.7-2.3,5.2-2.9,8.6-1.2c12.1,6.3,24.3,6.4,36.4,0c3.3-1.7,5.9-1.3,8.6,1
	c10,8.4,15.4,19.1,15.8,32.2C121.4,419,121.2,427.7,121.2,436.3C121.2,436.3,121.2,436.3,121.2,436.3z"/>
<path class="st1" d="M252.8,75.9c18,0.2,32.4,14.9,32.4,33.1c0,17.8-15.2,32.6-33.2,32.3c-18.1-0.3-32.7-15.2-32.3-33.1
	C219.9,90.1,234.7,75.8,252.8,75.9z M252.4,132.2c13-0.1,23.5-10.6,23.6-23.5c0-12.8-10.7-23.6-23.5-23.7c-13-0.1-24,11-23.8,23.9
	C228.9,121.8,239.5,132.3,252.4,132.2z"/>
<path class="st2" d="M78.9,369c-18,0.1-32.7-14.2-32.8-31.9c-0.1-18.5,13.9-33.2,31.9-33.3c18.6-0.2,33.3,14,33.4,32.4
	C111.4,354.4,97.1,368.9,78.9,369z M78.6,312.8c-13,0.1-23.6,10.6-23.5,23.5c0.1,13.3,10.7,23.8,23.8,23.7
	c12.9-0.1,23.4-10.9,23.3-23.8C102.2,323.3,91.5,312.7,78.6,312.8z"/>
<path class="st2" d="M425.8,303.7c17.8-0.3,32.5,14.1,32.8,32c0.3,18.3-13.9,33-32,33.3c-18.1,0.3-32.9-13.8-33.3-31.5
	C393,318.6,407,304,425.8,303.7z M449.5,336.6c0.1-13.2-10.4-23.8-23.7-23.8c-12.5,0-23.3,10.6-23.5,23.1c-0.2,13.2,10.5,24,23.6,24
	C438.9,360,449.5,349.6,449.5,336.6z"/>
<path class="st2" d="M252.5,369c-18.2,0.1-32.7-14.3-32.9-32.5c-0.2-17.9,14.5-32.7,32.6-32.8c18.1-0.1,32.8,14.4,32.9,32.5
	C285.2,354.2,270.6,369,252.5,369z M252.1,360c12.9,0.1,23.6-10.3,23.9-23.2c0.3-12.8-10.4-23.7-23.2-23.9
	c-13.1-0.2-24,10.4-24.1,23.5C228.5,349.1,239.2,359.9,252.1,360z"/>
</svg>
